<svg viewBox="0 0 120 120" xmlns="http://www.w3.org/2000/svg"><path d="M60,14 C82,13 103,28 106,52 C109,78 92,101 65,105 C39,109 15,92 12,64 C9,38 30,16 60,14 Z" fill="#E88DA0" stroke="#6B4226" stroke-width="3.2" stroke-linejoin="round"/><path d="M38,34 C46,20 62,19 68,30 C74,41 61,47 55,39 C50,32 60,27 67,33" stroke="#6B4226" stroke-width="2.6" fill="none" stroke-linecap="round"/><ellipse cx="46" cy="55" rx="1.6" ry="2.6" fill="#F4E06B"/><ellipse cx="56" cy="66" rx="1.6" ry="2.6" fill="#F4E06B"/><ellipse cx="68" cy="54" rx="1.6" ry="2.6" fill="#F4E06B"/><ellipse cx="50" cy="45" rx="1.6" ry="2.6" fill="#F4E06B"/><ellipse cx="62" cy="45" rx="1.6" ry="2.6" fill="#F4E06B"/><ellipse cx="58" cy="58" rx="1.6" ry="2.6" fill="#F4E06B"/><g transform="translate(70,30) scale(0.7)"><path d="M0,0 C6,-10 18,-10 22,-2 C18,6 6,8 0,0 Z" fill="#8AA35E" stroke="#6B4226" stroke-width="1.4"/><path d="M0,0 C8,-2 16,-3 22,-2" stroke="#6B4226" stroke-width="1.1" fill="none"/></g></svg>