<svg viewBox="0 0 120 120" xmlns="http://www.w3.org/2000/svg"><path d="M60,14 C82,13 103,28 106,52 C109,78 92,101 65,105 C39,109 15,92 12,64 C9,38 30,16 60,14 Z" fill="#C7DE6E" stroke="#6B4226" stroke-width="3.2" stroke-linejoin="round"/><path d="M38,34 C46,20 62,19 68,30 C74,41 61,47 55,39 C50,32 60,27 67,33" stroke="#6B4226" stroke-width="2.6" fill="none" stroke-linecap="round"/><g transform="translate(48,48) scale(1.1)"><path d="M0,0 C6,-10 18,-10 22,-2 C18,6 6,8 0,0 Z" fill="#8AA35E" stroke="#6B4226" stroke-width="1.4"/><path d="M0,0 C8,-2 16,-3 22,-2" stroke="#6B4226" stroke-width="1.1" fill="none"/></g><g transform="translate(64,58)"><path d="M0,0 A16,16 0 0 1 16,16 L0,16 Z" fill="#DCEFA0" stroke="#6B4226" stroke-width="1.2"/><path d="M2,12 L2,4 M6,14 L6,4 M10,15 L10,6" stroke="#6B4226" stroke-width="0.8" opacity="0.6"/></g></svg>