<svg viewBox="0 0 120 120" xmlns="http://www.w3.org/2000/svg"><path d="M60,14 C82,13 103,28 106,52 C109,78 92,101 65,105 C39,109 15,92 12,64 C9,38 30,16 60,14 Z" fill="#F3E3B8" stroke="#6B4226" stroke-width="3.2" stroke-linejoin="round"/><path d="M38,34 C46,20 62,19 68,30 C74,41 61,47 55,39 C50,32 60,27 67,33" stroke="#6B4226" stroke-width="2.6" fill="none" stroke-linecap="round"/><circle cx="46" cy="60" r="2" fill="#B98A46" opacity="0.55"/><circle cx="58" cy="72" r="2" fill="#B98A46" opacity="0.55"/><circle cx="70" cy="55" r="2" fill="#B98A46" opacity="0.55"/><g transform="translate(66,30) scale(0.65)"><path d="M0,0 C6,-10 18,-10 22,-2 C18,6 6,8 0,0 Z" fill="#8AA35E" stroke="#6B4226" stroke-width="1.4"/><path d="M0,0 C8,-2 16,-3 22,-2" stroke="#6B4226" stroke-width="1.1" fill="none"/></g></svg>