<svg viewBox="0 0 120 120" xmlns="http://www.w3.org/2000/svg"><path d="M60,14 C82,13 103,28 106,52 C109,78 92,101 65,105 C39,109 15,92 12,64 C9,38 30,16 60,14 Z" fill="#8C6E52" stroke="#6B4226" stroke-width="3.2" stroke-linejoin="round"/><path d="M38,34 C46,20 62,19 68,30 C74,41 61,47 55,39 C50,32 60,27 67,33" stroke="#6B4226" stroke-width="2.6" fill="none" stroke-linecap="round"/><rect x="46" y="50" width="5" height="5" rx="1.4" fill="#3E2E20" stroke="#6B4226" stroke-width="0.8" transform="rotate(-20 48.5 52.5)"/><rect x="64" y="46" width="5" height="5" rx="1.4" fill="#3E2E20" stroke="#6B4226" stroke-width="0.8" transform="rotate(7 66.5 48.5)"/><rect x="54" y="66" width="5" height="5" rx="1.4" fill="#3E2E20" stroke="#6B4226" stroke-width="0.8" transform="rotate(-6 56.5 68.5)"/><rect x="70" y="60" width="5" height="5" rx="1.4" fill="#3E2E20" stroke="#6B4226" stroke-width="0.8" transform="rotate(-19 72.5 62.5)"/></svg>