<svg viewBox="0 0 120 120" xmlns="http://www.w3.org/2000/svg"><path d="M60,14 C82,13 103,28 106,52 C109,78 92,101 65,105 C39,109 15,92 12,64 C9,38 30,16 60,14 Z" fill="#A9622F" stroke="#6B4226" stroke-width="3.2" stroke-linejoin="round"/><path d="M38,34 C46,20 62,19 68,30 C74,41 61,47 55,39 C50,32 60,27 67,33" stroke="#6B4226" stroke-width="2.6" fill="none" stroke-linecap="round"/><path d="M36,54 C46,46 70,62 80,54" stroke="#6E3B18" stroke-width="3.4" fill="none" stroke-linecap="round"/><path d="M36,70 C46,62 70,78 80,70" stroke="#6E3B18" stroke-width="3.4" fill="none" stroke-linecap="round"/></svg>