<svg viewBox="0 0 120 120" xmlns="http://www.w3.org/2000/svg"><path d="M60,14 C82,13 103,28 106,52 C109,78 92,101 65,105 C39,109 15,92 12,64 C9,38 30,16 60,14 Z" fill="#7A4A2B" stroke="#6B4226" stroke-width="3.2" stroke-linejoin="round"/><path d="M38,34 C46,20 62,19 68,30 C74,41 61,47 55,39 C50,32 60,27 67,33" stroke="#6B4226" stroke-width="2.6" fill="none" stroke-linecap="round"/><rect x="40" y="44" width="32" height="5" rx="2" fill="#C9A15A" stroke="#6B4226" stroke-width="1"/><rect x="40" y="54" width="32" height="5" rx="2" fill="#C9A15A" stroke="#6B4226" stroke-width="1"/><rect x="40" y="64" width="32" height="5" rx="2" fill="#C9A15A" stroke="#6B4226" stroke-width="1"/></svg>