<svg viewBox="0 0 120 120" xmlns="http://www.w3.org/2000/svg"><path d="M60,14 C82,13 103,28 106,52 C109,78 92,101 65,105 C39,109 15,92 12,64 C9,38 30,16 60,14 Z" fill="#B97A3D" stroke="#6B4226" stroke-width="3.2" stroke-linejoin="round"/><path d="M38,34 C46,20 62,19 68,30 C74,41 61,47 55,39 C50,32 60,27 67,33" stroke="#6B4226" stroke-width="2.6" fill="none" stroke-linecap="round"/><ellipse cx="48" cy="50" rx="6" ry="4.2" fill="#8B5E34" stroke="#6B4226" stroke-width="1" transform="rotate(20 48 50)"/><ellipse cx="64" cy="58" rx="6" ry="4.2" fill="#8B5E34" stroke="#6B4226" stroke-width="1" transform="rotate(20 64 58)"/><path d="M38,72 C48,64 68,80 78,72" stroke="#7A4A1F" stroke-width="3.4" fill="none" stroke-linecap="round"/></svg>