<svg viewBox="0 0 120 120" xmlns="http://www.w3.org/2000/svg"><path d="M60,14 C82,13 103,28 106,52 C109,78 92,101 65,105 C39,109 15,92 12,64 C9,38 30,16 60,14 Z" fill="#D4B483" stroke="#6B4226" stroke-width="3.2" stroke-linejoin="round"/><path d="M38,34 C46,20 62,19 68,30 C74,41 61,47 55,39 C50,32 60,27 67,33" stroke="#6B4226" stroke-width="2.6" fill="none" stroke-linecap="round"/><ellipse cx="44" cy="50" rx="3" ry="1.6" fill="#EDE0C0" stroke="#6B4226" stroke-width="0.6" transform="rotate(-30 44 50)"/><ellipse cx="56" cy="46" rx="3" ry="1.6" fill="#EDE0C0" stroke="#6B4226" stroke-width="0.6" transform="rotate(5 56 46)"/><ellipse cx="68" cy="52" rx="3" ry="1.6" fill="#EDE0C0" stroke="#6B4226" stroke-width="0.6" transform="rotate(-20 68 52)"/><ellipse cx="50" cy="64" rx="3" ry="1.6" fill="#EDE0C0" stroke="#6B4226" stroke-width="0.6" transform="rotate(15 50 64)"/><ellipse cx="62" cy="66" rx="3" ry="1.6" fill="#EDE0C0" stroke="#6B4226" stroke-width="0.6" transform="rotate(-10 62 66)"/><ellipse cx="72" cy="60" rx="3" ry="1.6" fill="#EDE0C0" stroke="#6B4226" stroke-width="0.6" transform="rotate(25 72 60)"/></svg>