<svg viewBox="0 0 120 120" xmlns="http://www.w3.org/2000/svg"><path d="M60,14 C82,13 103,28 106,52 C109,78 92,101 65,105 C39,109 15,92 12,64 C9,38 30,16 60,14 Z" fill="#D6849B" stroke="#6B4226" stroke-width="3.2" stroke-linejoin="round"/><path d="M38,34 C46,20 62,19 68,30 C74,41 61,47 55,39 C50,32 60,27 67,33" stroke="#6B4226" stroke-width="2.6" fill="none" stroke-linecap="round"/><g><rect x="50" y="50" width="16" height="16" rx="2" fill="#E39BAE" stroke="#6B4226" stroke-width="1.2"/><circle cx="54" cy="54" r="1.1" fill="#FFFFFF" opacity="0.9"/><circle cx="61" cy="56" r="1.1" fill="#FFFFFF" opacity="0.9"/><circle cx="57" cy="61" r="1.1" fill="#FFFFFF" opacity="0.9"/><circle cx="63" cy="62" r="1.1" fill="#FFFFFF" opacity="0.9"/></g></svg>