<svg viewBox="0 0 120 120" xmlns="http://www.w3.org/2000/svg"><path d="M60,14 C82,13 103,28 106,52 C109,78 92,101 65,105 C39,109 15,92 12,64 C9,38 30,16 60,14 Z" fill="#5C4033" stroke="#6B4226" stroke-width="3.2" stroke-linejoin="round"/><path d="M38,34 C46,20 62,19 68,30 C74,41 61,47 55,39 C50,32 60,27 67,33" stroke="#6B4226" stroke-width="2.6" fill="none" stroke-linecap="round"/><g transform="translate(52,54) scale(1)"><ellipse cx="0" cy="0" rx="7" ry="10" fill="#2E1B10" stroke="#6B4226" stroke-width="1" transform="rotate(20)"/><path d="M0,-8 C1,-3 1,3 0,8" stroke="#1F150E" stroke-width="1.2" fill="none" transform="rotate(20)"/></g><g transform="translate(70,62) scale(0.8)"><ellipse cx="0" cy="0" rx="7" ry="10" fill="#2E1B10" stroke="#6B4226" stroke-width="1" transform="rotate(20)"/><path d="M0,-8 C1,-3 1,3 0,8" stroke="#1F150E" stroke-width="1.2" fill="none" transform="rotate(20)"/></g></svg>