<svg viewBox="0 0 120 120" xmlns="http://www.w3.org/2000/svg"><path d="M60,14 C82,13 103,28 106,52 C109,78 92,101 65,105 C39,109 15,92 12,64 C9,38 30,16 60,14 Z" fill="#F5DCE2" stroke="#6B4226" stroke-width="3.2" stroke-linejoin="round"/><path d="M38,34 C46,20 62,19 68,30 C74,41 61,47 55,39 C50,32 60,27 67,33" stroke="#6B4226" stroke-width="2.6" fill="none" stroke-linecap="round"/><g transform="translate(56,58)"><path d="M0,0 C-6,-6 -6,-14 0,-16 C6,-14 6,-6 0,0 Z" fill="#E8879A" stroke="#6B4226" stroke-width="1"/><path d="M14,4 C8,-2 8,-10 14,-12 C20,-10 20,-2 14,4 Z" fill="#E8879A" stroke="#6B4226" stroke-width="1"/><path d="M7,14 C1,8 1,0 7,-2 C13,0 13,8 7,14 Z" fill="#E8879A" stroke="#6B4226" stroke-width="1"/></g></svg>